<svg width="39" height="28" viewBox="0 0 39 28" fill="none" xmlns="http://www.w3.org/2000/svg">
<path d="M0.6 -1.90735e-06H7.8C11.1867 -1.90735e-06 13.6933 0.773332 15.32 2.32C16.9733 3.86667 17.8 6.16 17.8 9.2C17.8 12.24 16.9733 14.5333 15.32 16.08C13.6933 17.6267 11.1867 18.4 7.8 18.4H4.6V28H0.6V-1.90735e-06ZM7.8 15.6C9.82667 15.6 11.3333 15.08 12.32 14.04C13.3067 13 13.8 11.3867 13.8 9.2C13.8 7.01333 13.3067 5.4 12.32 4.36C11.3333 3.32 9.82667 2.8 7.8 2.8H4.6V15.6H7.8ZM23.2172 28V-1.90735e-06H38.8172V2.8H27.2172V12.4H36.4172V15.2H27.2172V28H23.2172Z" fill="white"/>
<path d="M0.6 -1.90735e-06H7.8C11.1867 -1.90735e-06 13.6933 0.773332 15.32 2.32C16.9733 3.86667 17.8 6.16 17.8 9.2C17.8 12.24 16.9733 14.5333 15.32 16.08C13.6933 17.6267 11.1867 18.4 7.8 18.4H4.6V28H0.6V-1.90735e-06ZM7.8 15.6C9.82667 15.6 11.3333 15.08 12.32 14.04C13.3067 13 13.8 11.3867 13.8 9.2C13.8 7.01333 13.3067 5.4 12.32 4.36C11.3333 3.32 9.82667 2.8 7.8 2.8H4.6V15.6H7.8ZM23.2172 28V-1.90735e-06H38.8172V2.8H27.2172V12.4H36.4172V15.2H27.2172V28H23.2172Z" fill="url(#paint0_linear)"/>
<defs>
<linearGradient id="paint0_linear" x1="-18.8913" y1="35.9239" x2="35.6" y2="24.9214" gradientUnits="userSpaceOnUse">
<stop stop-color="#1C5AE7"/>
<stop offset="1" stop-color="#8C35C7"/>
</linearGradient>
</defs>
</svg>
