<svg width="182" height="30" viewBox="0 0 182 30" fill="none" xmlns="http://www.w3.org/2000/svg">
<path d="M0.6 0.999998H7.8C11.1867 0.999998 13.6933 1.77333 15.32 3.32C16.9733 4.86667 17.8 7.16 17.8 10.2C17.8 13.24 16.9733 15.5333 15.32 17.08C13.6933 18.6267 11.1867 19.4 7.8 19.4H4.6V29H0.6V0.999998ZM7.8 16.6C9.82667 16.6 11.3333 16.08 12.32 15.04C13.3067 14 13.8 12.3867 13.8 10.2C13.8 8.01333 13.3067 6.4 12.32 5.36C11.3333 4.32 9.82667 3.8 7.8 3.8H4.6V16.6H7.8ZM31.6172 29.4C28.5505 29.4 26.1505 28.2533 24.4172 25.96C22.6839 23.64 21.8172 19.9867 21.8172 15C21.8172 10.0133 22.6839 6.37333 24.4172 4.08C26.1505 1.76 28.5505 0.599998 31.6172 0.599998C34.6839 0.599998 37.0839 1.76 38.8172 4.08C40.5505 6.37333 41.4172 10.0133 41.4172 15C41.4172 19.9867 40.5505 23.64 38.8172 25.96C37.0839 28.2533 34.6839 29.4 31.6172 29.4ZM31.6172 26.6C33.2972 26.6 34.6839 25.6933 35.7772 23.88C36.8705 22.04 37.4172 19.08 37.4172 15C37.4172 10.92 36.8705 7.97333 35.7772 6.16C34.6839 4.32 33.2972 3.4 31.6172 3.4C29.9372 3.4 28.5505 4.32 27.4572 6.16C26.3639 7.97333 25.8172 10.92 25.8172 15C25.8172 19.08 26.3639 22.04 27.4572 23.88C28.5505 25.6933 29.9372 26.6 31.6172 26.6ZM47.2016 0.999998H54.0016C57.3616 0.999998 59.8682 1.74666 61.5216 3.24C63.1749 4.73333 64.0016 6.92 64.0016 9.8C64.0016 14.0667 62.1749 16.8 58.5216 18L65.2016 29H60.6016L54.4016 18.6H51.2016V29H47.2016V0.999998ZM54.0016 15.8C58.0016 15.8 60.0016 13.8 60.0016 9.8C60.0016 5.8 58.0016 3.8 54.0016 3.8H51.2016V15.8H54.0016ZM73.4281 29V3.8H66.2281V0.999998H84.6281V3.8H77.4281V29H73.4281ZM88.6469 29V0.999998H104.247V3.8H92.6469V13.4H101.847V16.2H92.6469V29H88.6469ZM117.047 29.4C113.98 29.4 111.58 28.2533 109.847 25.96C108.114 23.64 107.247 19.9867 107.247 15C107.247 10.0133 108.114 6.37333 109.847 4.08C111.58 1.76 113.98 0.599998 117.047 0.599998C120.114 0.599998 122.514 1.76 124.247 4.08C125.98 6.37333 126.847 10.0133 126.847 15C126.847 19.9867 125.98 23.64 124.247 25.96C122.514 28.2533 120.114 29.4 117.047 29.4ZM117.047 26.6C118.727 26.6 120.114 25.6933 121.207 23.88C122.3 22.04 122.847 19.08 122.847 15C122.847 10.92 122.3 7.97333 121.207 6.16C120.114 4.32 118.727 3.4 117.047 3.4C115.367 3.4 113.98 4.32 112.887 6.16C111.794 7.97333 111.247 10.92 111.247 15C111.247 19.08 111.794 22.04 112.887 23.88C113.98 25.6933 115.367 26.6 117.047 26.6ZM132.631 29V0.999998H136.631V26.2H148.231V29H132.631ZM152.241 29V0.999998H156.241V29H152.241ZM171.852 29.4C168.785 29.4 166.385 28.2533 164.652 25.96C162.918 23.64 162.052 19.9867 162.052 15C162.052 10.0133 162.918 6.37333 164.652 4.08C166.385 1.76 168.785 0.599998 171.852 0.599998C174.918 0.599998 177.318 1.76 179.052 4.08C180.785 6.37333 181.652 10.0133 181.652 15C181.652 19.9867 180.785 23.64 179.052 25.96C177.318 28.2533 174.918 29.4 171.852 29.4ZM171.852 26.6C173.532 26.6 174.918 25.6933 176.012 23.88C177.105 22.04 177.652 19.08 177.652 15C177.652 10.92 177.105 7.97333 176.012 6.16C174.918 4.32 173.532 3.4 171.852 3.4C170.172 3.4 168.785 4.32 167.692 6.16C166.598 7.97333 166.052 10.92 166.052 15C166.052 19.08 166.598 22.04 167.692 23.88C168.785 25.6933 170.172 26.6 171.852 26.6Z" fill="white"/>
<path d="M0.6 0.999998H7.8C11.1867 0.999998 13.6933 1.77333 15.32 3.32C16.9733 4.86667 17.8 7.16 17.8 10.2C17.8 13.24 16.9733 15.5333 15.32 17.08C13.6933 18.6267 11.1867 19.4 7.8 19.4H4.6V29H0.6V0.999998ZM7.8 16.6C9.82667 16.6 11.3333 16.08 12.32 15.04C13.3067 14 13.8 12.3867 13.8 10.2C13.8 8.01333 13.3067 6.4 12.32 5.36C11.3333 4.32 9.82667 3.8 7.8 3.8H4.6V16.6H7.8ZM31.6172 29.4C28.5505 29.4 26.1505 28.2533 24.4172 25.96C22.6839 23.64 21.8172 19.9867 21.8172 15C21.8172 10.0133 22.6839 6.37333 24.4172 4.08C26.1505 1.76 28.5505 0.599998 31.6172 0.599998C34.6839 0.599998 37.0839 1.76 38.8172 4.08C40.5505 6.37333 41.4172 10.0133 41.4172 15C41.4172 19.9867 40.5505 23.64 38.8172 25.96C37.0839 28.2533 34.6839 29.4 31.6172 29.4ZM31.6172 26.6C33.2972 26.6 34.6839 25.6933 35.7772 23.88C36.8705 22.04 37.4172 19.08 37.4172 15C37.4172 10.92 36.8705 7.97333 35.7772 6.16C34.6839 4.32 33.2972 3.4 31.6172 3.4C29.9372 3.4 28.5505 4.32 27.4572 6.16C26.3639 7.97333 25.8172 10.92 25.8172 15C25.8172 19.08 26.3639 22.04 27.4572 23.88C28.5505 25.6933 29.9372 26.6 31.6172 26.6ZM47.2016 0.999998H54.0016C57.3616 0.999998 59.8682 1.74666 61.5216 3.24C63.1749 4.73333 64.0016 6.92 64.0016 9.8C64.0016 14.0667 62.1749 16.8 58.5216 18L65.2016 29H60.6016L54.4016 18.6H51.2016V29H47.2016V0.999998ZM54.0016 15.8C58.0016 15.8 60.0016 13.8 60.0016 9.8C60.0016 5.8 58.0016 3.8 54.0016 3.8H51.2016V15.8H54.0016ZM73.4281 29V3.8H66.2281V0.999998H84.6281V3.8H77.4281V29H73.4281ZM88.6469 29V0.999998H104.247V3.8H92.6469V13.4H101.847V16.2H92.6469V29H88.6469ZM117.047 29.4C113.98 29.4 111.58 28.2533 109.847 25.96C108.114 23.64 107.247 19.9867 107.247 15C107.247 10.0133 108.114 6.37333 109.847 4.08C111.58 1.76 113.98 0.599998 117.047 0.599998C120.114 0.599998 122.514 1.76 124.247 4.08C125.98 6.37333 126.847 10.0133 126.847 15C126.847 19.9867 125.98 23.64 124.247 25.96C122.514 28.2533 120.114 29.4 117.047 29.4ZM117.047 26.6C118.727 26.6 120.114 25.6933 121.207 23.88C122.3 22.04 122.847 19.08 122.847 15C122.847 10.92 122.3 7.97333 121.207 6.16C120.114 4.32 118.727 3.4 117.047 3.4C115.367 3.4 113.98 4.32 112.887 6.16C111.794 7.97333 111.247 10.92 111.247 15C111.247 19.08 111.794 22.04 112.887 23.88C113.98 25.6933 115.367 26.6 117.047 26.6ZM132.631 29V0.999998H136.631V26.2H148.231V29H132.631ZM152.241 29V0.999998H156.241V29H152.241ZM171.852 29.4C168.785 29.4 166.385 28.2533 164.652 25.96C162.918 23.64 162.052 19.9867 162.052 15C162.052 10.0133 162.918 6.37333 164.652 4.08C166.385 1.76 168.785 0.599998 171.852 0.599998C174.918 0.599998 177.318 1.76 179.052 4.08C180.785 6.37333 181.652 10.0133 181.652 15C181.652 19.9867 180.785 23.64 179.052 25.96C177.318 28.2533 174.918 29.4 171.852 29.4ZM171.852 26.6C173.532 26.6 174.918 25.6933 176.012 23.88C177.105 22.04 177.652 19.08 177.652 15C177.652 10.92 177.105 7.97333 176.012 6.16C174.918 4.32 173.532 3.4 171.852 3.4C170.172 3.4 168.785 4.32 167.692 6.16C166.598 7.97333 166.052 10.92 166.052 15C166.052 19.08 166.598 22.04 167.692 23.88C168.785 25.6933 170.172 26.6 171.852 26.6Z" fill="url(#paint0_linear)"/>
<defs>
<linearGradient id="paint0_linear" x1="-72.1087" y1="36.9239" x2="67.1515" y2="-85.3587" gradientUnits="userSpaceOnUse">
<stop stop-color="#1C5AE7"/>
<stop offset="1" stop-color="#8C35C7"/>
</linearGradient>
</defs>
</svg>
